<svg xmlns="http://www.w3.org/2000/svg" version="1.1" xmlns:xlink="http://www.w3.org/1999/xlink" xmlns:svgjs="http://svgjs.dev/svgjs" width="100%" height="100%" viewBox="0 0 1000 600"><rect width="1000" height="600" x="0" y="0" fill="#ffffff"/><g><circle r="166.66666666666666" cx="291.41784159342444" cy="313.6400604511754" fill="#102999" transform="matrix(1.0019946118326857,0,0,1.0019946118326855,0,-14.265660224569373)"/><path d="M256.8692269660772 265.91280771067545Q256.8692269660772 254.32821186267478 253.68109568365736 248.74109070437473Q250.52453005749913 243.18553520233624 240.9601362102397 243.18553520233624L240.9601362102397 243.18553520233624L236.41468170857186 243.18553520233624L236.41468170857186 238.6400807006684L327.10281214809777 238.6400807006684Q346.4209937801861 238.6400807006684 346.4209937801861 256.82189870733976L346.4209937801861 256.82189870733976L346.4209937801861 273.8673530885942L341.8755392785182 273.8673530885942Q341.8755392785182 247.7309897040041 313.46644864309417 247.7309897040041L313.46644864309417 247.7309897040041L277.3237722235825 247.7309897040041L277.3237722235825 307.9582618511031L328.6810949611769 307.9582618511031L328.6810949611769 317.0491708544388L277.3237722235825 317.0491708544388L277.3237722235825 388.6400792557073L256.8692269660772 388.6400792557073L256.8692269660772 265.91280771067545Z " fill="#ffffff" transform="matrix(1.0019946118326857,0,0,1.0019946118326855,0,-14.265660224569373)"/><path d="M541.4178365410461 384.8756998982318Q550.4627997745583 384.8756998982318 554.8807153423722 375.2817649077722Q559.298630910186 365.68782991731257 559.298630910186 348.17301671947087L559.298630910186 348.17301671947087L559.298630910186 238.64008045237077L576.238330838845 238.64008045237077L576.238330838845 348.17301671947087Q576.238330838845 362.86454659586946 573.1274908828104 371.6219531947903Q570.0427924390114 380.3793597937113 562.5140369151629 384.50971872693367Q554.9852813913146 388.64007766015607 541.4178365410461 388.64007766015607L541.4178365410461 388.64007766015607L541.4178365410461 384.8756998982318ZM637.9845827392961 364.74673547683153Q623.8681661320804 364.74673547683153 614.9277689475103 357.2179799529832Q605.9873717629404 349.6892244291348 605.9873717629404 330.8673356195137L605.9873717629404 330.8673356195137L605.9873717629404 296.9879357621959Q605.9873717629404 287.3940007717363 603.3470790271463 282.7669531060378Q600.7067862913523 278.1660469525749 592.8120495962057 278.1660469525749L592.8120495962057 278.1660469525749L590.9298607152436 278.1660469525749L590.9298607152436 274.40166919065075L605.9873717629404 274.40166919065075Q612.941014017606 274.40166919065075 616.4178351449386 276.17929202267044Q619.920797784507 277.9830563669258 621.4108639819353 282.6885285693311Q622.9270716915993 287.3940007717363 622.9270716915993 296.9879357621959L622.9270716915993 296.9879357621959L622.9270716915993 330.8673356195137Q622.9270716915993 344.04265778624847 628.861194969077 350.15977164937533Q634.7691767343192 356.2768855125021 643.6311493821825 356.2768855125021L643.6311493821825 356.2768855125021Q653.5910655439402 356.2768855125021 662.4530381918034 346.2908278385087L662.4530381918034 346.2908278385087L662.4530381918034 274.40166919065075L679.3927381204624 274.40166919065075L679.3927381204624 362.86454659586946L669.9817937156519 362.86454659586946L663.3941326322845 355.33579107202104L662.4530381918034 355.33579107202104Q658.5056698442302 359.2831594195943 652.1794238832186 362.0280182043308Q645.8793194344427 364.74673547683153 637.9845827392961 364.74673547683153L637.9845827392961 364.74673547683153ZM727.571545170645 364.74673547683153Q721.5589973564605 364.74673547683153 715.3373174443914 362.2110087899798Q709.1156375323222 359.6752821031281 704.6977219645084 353.8195833623572Q700.2798063966945 347.99002613382174 700.2798063966945 338.3960911433621L700.2798063966945 338.3960911433621Q700.2798063966945 324.0966839504973 713.5596946123716 318.0579946240772Q726.8134413158131 312.0454468098927 748.2756228612282 312.0454468098927L748.2756228612282 312.0454468098927L753.9221895041145 312.0454468098927Q753.9221895041145 293.58953917156987 748.8507361304111 286.8188875025535Q743.753141244472 280.048235833537 734.1592062540124 280.048235833537L734.1592062540124 280.048235833537Q725.6893562896829 280.048235833537 720.6179029159795 283.6296230098121Q715.5203080300405 287.21101018608726 713.4551285634293 296.04684132171485L713.4551285634293 296.04684132171485L704.9852785990998 296.04684132171485Q704.9852785990998 289.6421708239966 705.7433824539318 285.9823591110147Q706.5014863087637 282.2964058857973 709.690750801505 279.10714139305594L709.690750801505 279.10714139305594Q713.089147392131 275.7087448024299 720.8793180383353 274.11411255605924Q728.6956301967751 272.51948030968856 737.9235840159366 272.51948030968856L737.9235840159366 272.51948030968856Q753.1640856492825 272.51948030968856 762.0260582971457 280.7017736394266Q770.8618894327734 288.8840669691647 770.8618894327734 312.0454468098927L770.8618894327734 312.0454468098927L770.8618894327734 362.86454659586946L761.4509450279628 362.86454659586946L754.8632839445955 354.39469663154L753.9221895041145 354.39469663154Q750.5237929134885 358.73418766264706 743.9361318301211 361.7404615697393Q737.3484707467537 364.74673547683153 727.571545170645 364.74673547683153L727.571545170645 364.74673547683153ZM736.0413951349746 356.2768855125021Q742.2630750470437 356.2768855125021 746.3934339802661 353.27061160540984Q750.5237929134885 350.2643376983176 753.9221895041145 344.9837522267295L753.9221895041145 344.9837522267295L753.9221895041145 319.57420233374114L748.2756228612282 319.57420233374114Q734.3421968396615 319.57420233374114 726.2644695588658 324.75022175638696Q718.1606007658345 329.9262411790327 718.1606007658345 338.3960911433621L718.1606007658345 338.3960911433621Q718.1606007658345 347.0489316933407 723.3366201884803 351.67597935903916Q728.5126396111261 356.2768855125021 736.0413951349746 356.2768855125021L736.0413951349746 356.2768855125021ZM799.8528265020369 296.9879357621959Q799.8528265020369 287.3940007717363 797.2125337662428 282.7669531060378Q794.5722410304487 278.1660469525749 786.6775043353022 278.1660469525749L786.6775043353022 278.1660469525749L782.913126573378 278.1660469525749L782.913126573378 274.40166919065075L799.8528265020369 274.40166919065075Q806.8064687567024 274.40166919065075 810.4924219819198 276.2838580716128Q814.1522336949017 278.1660469525749 815.8514319902147 281.93042471449917L815.8514319902147 281.93042471449917L816.7925264306958 281.93042471449917Q820.7398947782691 277.9830563669258 827.039999227045 275.2381975821894Q833.3401036758208 272.51948030968856 841.260981883203 272.51948030968856L841.260981883203 272.51948030968856Q855.3773984904188 272.51948030968856 864.3177956749888 280.048235833537Q873.2581928595588 287.5769913573854 873.2581928595588 306.3988801670064L873.2581928595588 306.3988801670064L873.2581928595588 362.86454659586946L856.3184929308999 362.86454659586946L856.3184929308999 306.3988801670064Q856.3184929308999 293.22355800027174 850.3843696534221 287.1064441371449Q844.4502463759444 280.989330274018 835.6144152403168 280.989330274018L835.6144152403168 280.989330274018Q825.6283575663234 280.989330274018 816.7925264306958 290.9753879480114L816.7925264306958 290.9753879480114L816.7925264306958 362.86454659586946L799.8528265020369 362.86454659586946L799.8528265020369 296.9879357621959Z " fill="#ffffff" transform="matrix(1.0019946118326857,0,0,1.0019946118326855,0,-14.265660224569373)"/></g></svg>